<svg xmlns="http://www.w3.org/2000/svg" width="136" height="25" viewBox="0 0 136 25"><path d="M25.05.39a12,12,0,0,0-12,12h4.23a7.75,7.75,0,1,1,7.74,7.74c-.33,0-.91-.05-.91-.05a16.43,16.43,0,0,1-3.2,3.59,12.92,12.92,0,0,0,4.11.69,12,12,0,1,0,0-23.94" fill="#bb16a3" fill-rule="evenodd"/><path d="M12,24.33a12,12,0,0,0,12-12H19.72A7.75,7.75,0,1,1,12,4.61c.34,0,.92.06.92.06a16.2,16.2,0,0,1,3.2-3.59A13,13,0,0,0,12,.39a12,12,0,0,0,0,23.94" fill="#00af66" fill-rule="evenodd"/><path d="M56.39,10.56a3.1,3.1,0,0,0,3.35-3.2,2.91,2.91,0,0,0-3-2.93H50.2v6.13Zm.36,9.72c2.14,0,3.42-1.16,3.42-3.1a3,3,0,0,0-3.25-3.1H50.2v6.2Zm-11.06,3.8V.63H57.24c4.17,0,6.87,2.53,6.87,6.44a5,5,0,0,1-3.48,4.87v.21a5.3,5.3,0,0,1,4.15,5.49c0,3.21-1.68,6.44-7.5,6.44Z" fill="#222221" fill-rule="evenodd"/><path d="M94.72,13.51l0-.2a4.31,4.31,0,0,0-4.34-3.38,4.63,4.63,0,0,0-4.52,3.38l0,.2Zm-4.39,11.1a8.87,8.87,0,0,1-9-9.2,8.91,8.91,0,1,1,17.81-.35v1.43H85.63l0,.19a4.81,4.81,0,0,0,4.64,4.24,4.57,4.57,0,0,0,4.41-2.3l0,0H99l0,.1a8.71,8.71,0,0,1-8.62,5.93Z" fill="#222221" fill-rule="evenodd"/><polygon points="102.35 24.08 106.71 24.08 106.71 0.64 102.35 0.64 102.35 24.08" fill="#222221" fill-rule="evenodd"/><polygon points="109.92 24.08 114.28 24.08 114.28 0.64 109.92 0.64 109.92 24.08" fill="#222221" fill-rule="evenodd"/><path d="M126.44,9.93c-3.08,0-5.12,2.25-5.12,5.48s2,5.44,5.12,5.44a5.26,5.26,0,0,0,5.19-5.44,5.28,5.28,0,0,0-5.19-5.48m-.82,14.68c-5.06,0-8.53-4.44-8.53-9.2s3.47-9.24,8.52-9.24c4.32,0,5.81,2.35,5.81,2.35h.21V6.7H136V24.08h-4.37V22.26h-.21s-1.47,2.35-5.8,2.35" fill="#222221" fill-rule="evenodd"/><path d="M67.86,24.08V6.7h4.37v3.74h.21a6.59,6.59,0,0,1,6.29-4h.85v4.33H78.7c-4.29,0-6.47,2.61-6.47,7.75v5.55Z" fill="#222221" fill-rule="evenodd"/></svg>